<?xml version="1.0" encoding="UTF-8"?>
<svg id="_レイヤー_1" data-name="レイヤー_1" xmlns="http://www.w3.org/2000/svg" version="1.1" viewBox="0 0 346.78 71.35">
  <!-- Generator: Adobe Illustrator 29.7.1, SVG Export Plug-In . SVG Version: 2.1.1 Build 8)  -->
  <defs>
    <style>
      .st0 {
        fill: #fff;
      }

      .st1 {
        fill: #040000;
      }
    </style>
  </defs>
  <text/>
  <g>
    <g>
      <path class="st1" d="M46.7,1.5v61.31h-12.81l-.02-41.39-5.1,41.39h-9.08l-5.38-40.44-.02,40.44H1.5V1.5h18.96c.56,3.69,1.14,8.03,1.74,13.03l2.08,15.59L27.64,1.5h19.06Z"/>
      <path class="st0" d="M48.2,64.31h-15.81v-18.53s-2.29,18.53-2.29,18.53h-11.72l-2.57-19.35v19.35H0V0h21.75l.19,1.27c.56,3.69,1.15,8.09,1.75,13.08l.5,3.73L26.31,0h21.9v64.31ZM35.4,61.31h9.81V3h-16.23l-4.61,39.17-3.66-27.44c-.53-4.41-1.04-8.35-1.54-11.73H3v58.31h9.81l.02-38.94,2.99-.2,5.2,39.14h6.44l4.94-40.07,2.99.18.02,39.89Z"/>
    </g>
    <g>
      <path class="st1" d="M81.6,12.56l-4.02,36.35c-.64,5.76-1.17,9.68-1.6,11.78-.43,2.1-1.14,3.82-2.14,5.19-1,1.36-2.38,2.37-4.16,3.01-1.77.64-4.61.96-8.51.96h-8.52v-8.03c2.18,0,3.59-.12,4.22-.36.63-.24.94-.78.94-1.61,0-.4-.29-2.16-.87-5.26l-7.7-42.03h12.76l4.62,33.93,2.25-33.93h12.72Z"/>
      <path class="st0" d="M61.18,71.35h-10.02v-11.03h1.5c2.66,0,3.46-.19,3.65-.25,0-.03,0-.1,0-.22,0-.13-.08-.9-.85-4.99l-8.02-43.81h15.87l2.8,20.54,1.36-20.54h15.8l-4.2,38.02c-.64,5.77-1.18,9.78-1.62,11.91-.47,2.3-1.28,4.24-2.4,5.77-1.17,1.6-2.81,2.79-4.86,3.54-1.96.71-4.91,1.05-9.02,1.05ZM54.16,68.35h7.02c3.7,0,6.39-.29,8-.88,1.5-.54,2.63-1.36,3.46-2.49.86-1.18,1.5-2.73,1.88-4.6.42-2.04.95-5.96,1.58-11.64l3.83-34.69h-9.64l-3.14,47.32-6.44-47.32h-9.65l7.37,40.26c.9,4.79.9,5.27.9,5.53,0,1.45-.69,2.55-1.91,3.01-.46.17-1.24.37-3.25.44v5.05Z"/>
    </g>
    <g>
      <path class="st1" d="M97.09,1.5h14.75c3.99,0,7.06.34,9.2,1.02,2.15.68,3.76,1.67,4.84,2.95,1.08,1.29,1.81,2.85,2.19,4.68.38,1.83.57,4.66.57,8.5v5.34c0,3.91-.37,6.77-1.11,8.56-.74,1.79-2.1,3.17-4.09,4.13-1.98.96-4.58,1.44-7.78,1.44h-3.93v24.69h-14.65V1.5ZM111.74,11.99v15.6c.42.03.78.04,1.08.04,1.35,0,2.28-.36,2.8-1.08.52-.72.78-2.22.78-4.49v-5.04c0-2.1-.3-3.46-.9-4.09-.6-.63-1.86-.95-3.76-.95Z"/>
      <path class="st0" d="M113.24,64.31h-17.65V0h16.25c4.18,0,7.34.36,9.66,1.09,2.41.77,4.27,1.92,5.53,3.42,1.23,1.47,2.08,3.27,2.51,5.33.41,1.95.61,4.83.61,8.81v5.34c0,4.15-.4,7.14-1.23,9.13-.88,2.13-2.51,3.78-4.82,4.9-2.18,1.05-5.01,1.59-8.43,1.59h-2.43v24.69ZM98.59,61.31h11.65v-24.69h5.43c2.96,0,5.36-.43,7.12-1.29,1.66-.8,2.75-1.9,3.36-3.35.66-1.6,1-4.29,1-7.98v-5.34c0-3.72-.18-6.47-.54-8.19-.33-1.58-.96-2.93-1.87-4.02-.89-1.06-2.28-1.9-4.14-2.49-1.99-.63-4.93-.95-8.75-.95h-13.25v58.31ZM112.82,29.13c-.33,0-.72-.01-1.17-.04l-1.41-.09V10.49h1.5c2.38,0,3.92.45,4.84,1.41.9.94,1.32,2.57,1.32,5.13v5.04c0,2.66-.34,4.36-1.07,5.37-.82,1.13-2.17,1.7-4.02,1.7ZM113.24,13.58v12.53c.44-.04.95-.15,1.17-.44.08-.11.5-.83.5-3.61v-5.04c0-2.51-.47-3.03-.49-3.05-.01-.01-.25-.25-1.17-.39Z"/>
    </g>
    <g>
      <path class="st1" d="M164.26,30.2v12.31c0,4.52-.21,7.83-.63,9.94-.42,2.11-1.31,4.08-2.68,5.91-1.37,1.83-3.13,3.18-5.27,4.05-2.15.87-4.61,1.31-7.4,1.31-3.11,0-5.74-.37-7.9-1.12-2.16-.74-3.83-1.87-5.03-3.37-1.19-1.5-2.05-3.32-2.56-5.45-.51-2.13-.77-5.33-.77-9.6v-12.88c0-4.67.46-8.32,1.39-10.94.93-2.63,2.6-4.73,5.01-6.32,2.41-1.59,5.5-2.39,9.26-2.39,3.15,0,5.86.51,8.13,1.53,2.26,1.02,4.01,2.35,5.24,4,1.23,1.64,2.07,3.33,2.52,5.07.45,1.74.68,4.39.68,7.95ZM150.2,26.42c0-2.57-.13-4.2-.38-4.87-.26-.67-.8-1-1.64-1s-1.39.33-1.67,1-.42,2.29-.42,4.87v22.68c0,2.37.14,3.92.42,4.64.28.72.82,1.08,1.64,1.08s1.39-.33,1.65-.98c.27-.66.4-2.07.4-4.24v-23.18Z"/>
      <path class="st0" d="M148.28,65.22c-3.26,0-6.08-.4-8.39-1.2-2.42-.83-4.34-2.13-5.71-3.85-1.33-1.67-2.28-3.7-2.84-6.04-.54-2.27-.81-5.52-.81-9.95v-12.88c0-4.89.48-8.63,1.48-11.44,1.03-2.93,2.92-5.31,5.6-7.08,2.65-1.75,6.04-2.63,10.08-2.63,3.35,0,6.3.56,8.74,1.67,2.48,1.12,4.44,2.62,5.82,4.46,1.34,1.79,2.28,3.68,2.77,5.6.49,1.88.73,4.61.73,8.33v12.31c0,4.66-.21,8.01-.66,10.23-.46,2.32-1.45,4.51-2.95,6.51-1.53,2.04-3.52,3.57-5.91,4.54-2.32.94-4.99,1.42-7.96,1.42ZM147.69,13.15c-3.44,0-6.28.72-8.43,2.14-2.15,1.42-3.6,3.24-4.42,5.57-.87,2.45-1.31,5.97-1.31,10.44v12.88c0,4.13.24,7.24.72,9.25.46,1.91,1.22,3.55,2.27,4.87,1.01,1.27,2.47,2.24,4.34,2.89,1.99.69,4.48,1.04,7.41,1.04,2.58,0,4.87-.4,6.83-1.2,1.91-.77,3.42-1.94,4.63-3.56,1.23-1.64,2.04-3.42,2.41-5.3.4-2,.6-5.25.6-9.65v-12.31c0-3.42-.21-5.97-.63-7.58-.4-1.54-1.17-3.07-2.27-4.55-1.07-1.43-2.64-2.62-4.65-3.53-2.06-.93-4.58-1.4-7.51-1.4ZM148.15,56.32c-1.43,0-2.53-.74-3.03-2.04-.24-.62-.52-1.78-.52-5.18v-22.68c0-3.69.28-4.85.53-5.44.51-1.22,1.62-1.93,3.06-1.93s2.56.72,3.04,1.97c.22.59.48,1.73.48,5.4v23.18c0,3.15-.27,4.22-.51,4.81-.5,1.22-1.6,1.92-3.04,1.92ZM147.97,53.3s.07.01.18.01c.2,0,.27-.04.27-.04.06-.18.28-.94.28-3.69v-23.18c0-3.41-.24-4.21-.28-4.33.02,0-.05-.04-.23-.04-.17,0-.25.03-.27.04-.06.16-.32.94-.32,4.33v22.68c0,3.04.24,3.91.32,4.1.03.08.06.11.06.11,0,0,0,0,0,0Z"/>
    </g>
    <g>
      <path class="st1" d="M182.94,12.56l-.56,6.61c2.04-4.73,5-7.24,8.87-7.52v17.68c-2.58,0-4.47.38-5.67,1.14-1.21.76-1.95,1.81-2.23,3.16-.28,1.35-.42,4.46-.42,9.33v19.84h-14.06V12.56h14.06Z"/>
      <path class="st0" d="M184.44,64.31h-17.06V11.06h17.19l-.19,2.26c1.88-1.91,4.14-2.97,6.77-3.16l1.61-.12v20.8h-1.5c-2.84,0-4.22.49-4.87.91-.86.54-1.36,1.24-1.56,2.19-.18.86-.39,3.12-.39,9.03v21.34ZM170.39,61.31h11.06v-18.34c0-5.02.15-8.17.45-9.64.36-1.76,1.34-3.15,2.9-4.13,1.2-.75,2.83-1.19,4.97-1.32v-14.45c-2.52.74-4.49,2.83-6,6.33l-3.64,8.45,1.19-14.15h-10.93v47.25Z"/>
    </g>
    <g>
      <path class="st1" d="M210.51,5.85v7.91h3.79v7.95h-3.79v26.89c0,3.31.16,5.15.47,5.53.31.38,1.62.57,3.92.57v8.1h-5.67c-3.2,0-5.49-.15-6.86-.44-1.37-.29-2.58-.96-3.62-2.01-1.04-1.05-1.69-2.25-1.95-3.6-.26-1.35-.38-4.52-.38-9.52v-25.52h-3.03v-7.95h3.03v-7.91h14.09Z"/>
      <path class="st0" d="M216.39,64.31h-7.17c-3.34,0-5.68-.15-7.17-.47-1.65-.35-3.12-1.16-4.37-2.42-1.26-1.26-2.05-2.73-2.36-4.38-.27-1.45-.41-4.66-.41-9.8v-24.02h-3.03v-10.95h3.03v-7.91h17.09v7.91h3.79v10.95h-3.79v25.39c0,2.7.11,3.91.19,4.44.38.07,1.17.16,2.69.16h1.5v11.1ZM194.88,20.22h3.03v27.02c0,6.08.19,8.38.36,9.24.2,1.06.7,1.98,1.54,2.82.84.85,1.78,1.37,2.87,1.6,1.26.27,3.46.4,6.54.4h4.17v-5.14c-2.29-.11-3.08-.49-3.57-1.08-.46-.56-.81-1.39-.81-6.48v-28.39h3.79v-4.95h-3.79v-7.91h-11.09v7.91h-3.03v4.95ZM211.87,52.96h0Z"/>
    </g>
    <g>
      <path class="st1" d="M235.32,1.5v7.76c-2.9,0-4.61.15-5.13.44-.52.29-.78,1.12-.78,2.48v1.59h5.92v7.95h-3.34v41.09h-14.06V21.72h-2.89v-7.95h2.89c0-3.31.1-5.52.31-6.63s.72-2.1,1.55-2.97c.82-.87,1.98-1.53,3.46-1.99,1.48-.45,3.79-.68,6.93-.68h5.15Z"/>
      <path class="st0" d="M233.48,64.31h-17.06V23.22h-2.89v-10.95h2.9c.03-2.6.14-4.38.33-5.4.26-1.39.91-2.65,1.93-3.73,1-1.06,2.38-1.86,4.11-2.39,1.64-.5,4.05-.75,7.37-.75h6.65v10.76h-1.5c-2.85,0-3.91.15-4.29.23-.05.16-.13.52-.13,1.19v.09h5.92v10.95h-3.34v41.09ZM219.42,61.31h11.06V20.22h3.34v-4.95h-5.92v-3.09c0-.72,0-2.93,1.55-3.79.48-.26,1.26-.54,4.36-.61V3h-3.65c-2.97,0-5.15.21-6.49.62-1.23.38-2.17.91-2.81,1.58-.63.66-1.01,1.39-1.16,2.22-.13.7-.29,2.37-.29,6.35v1.5h-2.89v4.95h2.89v41.09Z"/>
    </g>
    <g>
      <path class="st1" d="M269.8,30.2v12.31c0,4.52-.21,7.83-.63,9.94-.42,2.11-1.31,4.08-2.68,5.91-1.37,1.83-3.13,3.18-5.27,4.05-2.15.87-4.61,1.31-7.39,1.31-3.11,0-5.74-.37-7.9-1.12-2.16-.74-3.83-1.87-5.03-3.37-1.2-1.5-2.05-3.32-2.56-5.45-.51-2.13-.77-5.33-.77-9.6v-12.88c0-4.67.46-8.32,1.39-10.94.93-2.63,2.6-4.73,5.01-6.32,2.41-1.59,5.5-2.39,9.26-2.39,3.15,0,5.86.51,8.12,1.53,2.26,1.02,4.01,2.35,5.24,4,1.23,1.64,2.07,3.33,2.52,5.07.45,1.74.68,4.39.68,7.95ZM255.74,26.42c0-2.57-.13-4.2-.38-4.87-.25-.67-.8-1-1.63-1s-1.39.33-1.67,1-.42,2.29-.42,4.87v22.68c0,2.37.14,3.92.42,4.64.28.72.82,1.08,1.64,1.08s1.39-.33,1.65-.98c.27-.66.4-2.07.4-4.24v-23.18Z"/>
      <path class="st0" d="M253.83,65.22c-3.26,0-6.08-.4-8.39-1.2-2.42-.84-4.34-2.13-5.71-3.85-1.33-1.67-2.28-3.7-2.84-6.04-.54-2.27-.81-5.52-.81-9.95v-12.88c0-4.89.48-8.63,1.48-11.44,1.03-2.93,2.92-5.31,5.6-7.08,2.65-1.75,6.04-2.63,10.08-2.63,3.35,0,6.3.56,8.74,1.67,2.48,1.12,4.44,2.62,5.82,4.46,1.34,1.79,2.28,3.68,2.78,5.6.49,1.88.73,4.61.73,8.33v12.31c0,4.66-.21,8.01-.66,10.23-.46,2.32-1.45,4.51-2.95,6.51-1.53,2.04-3.52,3.57-5.91,4.54-2.32.94-5,1.42-7.96,1.42ZM253.24,13.15c-3.44,0-6.28.72-8.43,2.14-2.15,1.42-3.6,3.24-4.42,5.57-.87,2.45-1.31,5.97-1.31,10.44v12.88c0,4.13.24,7.24.72,9.25.46,1.91,1.22,3.55,2.27,4.87,1.01,1.27,2.47,2.24,4.34,2.89,1.99.69,4.48,1.04,7.41,1.04,2.58,0,4.87-.4,6.83-1.2,1.91-.77,3.42-1.94,4.63-3.56,1.23-1.64,2.04-3.42,2.41-5.3.4-2,.6-5.25.6-9.65v-12.31c0-3.41-.21-5.96-.63-7.58-.4-1.54-1.16-3.07-2.27-4.55-1.07-1.43-2.64-2.62-4.66-3.53-2.06-.93-4.58-1.4-7.51-1.4ZM253.69,56.32c-1.43,0-2.53-.74-3.03-2.04-.24-.62-.52-1.78-.52-5.18v-22.68c0-3.69.28-4.85.53-5.44.51-1.22,1.62-1.93,3.06-1.93s2.56.72,3.04,1.97c.22.58.48,1.73.48,5.4v23.18c0,3.14-.27,4.22-.51,4.8-.5,1.22-1.61,1.92-3.04,1.92ZM253.51,53.3s.07.01.18.01c.2,0,.27-.04.27-.04.06-.18.28-.94.28-3.69v-23.18c0-3.42-.24-4.21-.28-4.33.02,0-.05-.04-.23-.04-.17,0-.25.03-.27.04-.06.16-.32.94-.32,4.33v22.68c0,3.04.24,3.91.32,4.1.03.08.05.11.05.11,0,0,0,0,0,0Z"/>
    </g>
    <g>
      <path class="st1" d="M288.91,1.5v61.31h-14.48V1.5h14.48Z"/>
      <path class="st0" d="M290.41,64.31h-17.48V0h17.48v64.31ZM275.93,61.31h11.48V3h-11.48v58.31Z"/>
    </g>
    <g>
      <path class="st1" d="M308.43,1.5v7.99h-14.48V1.5h14.48ZM308.43,12.56v50.25h-14.48V12.56h14.48Z"/>
      <path class="st0" d="M309.93,64.31h-17.48V11.06h17.48v53.25ZM295.46,61.31h11.48V14.06h-11.48v47.25ZM309.93,10.99h-17.48V0h17.48v10.99ZM295.46,7.99h11.48V3h-11.48v4.99Z"/>
    </g>
    <g>
      <path class="st1" d="M345.28,30.2v12.31c0,4.52-.21,7.83-.63,9.94-.42,2.11-1.31,4.08-2.68,5.91-1.37,1.83-3.13,3.18-5.27,4.05-2.15.87-4.61,1.31-7.39,1.31-3.11,0-5.74-.37-7.9-1.12-2.16-.74-3.83-1.87-5.03-3.37-1.2-1.5-2.05-3.32-2.56-5.45-.51-2.13-.77-5.33-.77-9.6v-12.88c0-4.67.46-8.32,1.39-10.94.93-2.63,2.6-4.73,5.01-6.32,2.41-1.59,5.5-2.39,9.26-2.39,3.15,0,5.86.51,8.12,1.53,2.26,1.02,4.01,2.35,5.24,4,1.23,1.64,2.07,3.33,2.52,5.07.45,1.74.68,4.39.68,7.95ZM331.22,26.42c0-2.57-.13-4.2-.38-4.87-.25-.67-.8-1-1.63-1s-1.39.33-1.67,1-.42,2.29-.42,4.87v22.68c0,2.37.14,3.92.42,4.64.28.72.82,1.08,1.64,1.08s1.39-.33,1.65-.98c.27-.66.4-2.07.4-4.24v-23.18Z"/>
      <path class="st0" d="M329.31,65.22c-3.26,0-6.08-.4-8.39-1.2-2.42-.84-4.34-2.13-5.71-3.85-1.33-1.67-2.28-3.7-2.84-6.04-.54-2.27-.81-5.52-.81-9.95v-12.88c0-4.89.48-8.63,1.48-11.44,1.03-2.93,2.92-5.31,5.6-7.08,2.65-1.75,6.04-2.63,10.08-2.63,3.35,0,6.3.56,8.74,1.67,2.48,1.12,4.44,2.62,5.82,4.46,1.34,1.79,2.28,3.68,2.78,5.6.49,1.88.73,4.61.73,8.33v12.31c0,4.66-.21,8.01-.66,10.23-.46,2.32-1.45,4.51-2.95,6.51-1.53,2.04-3.52,3.57-5.91,4.54-2.32.94-5,1.42-7.96,1.42ZM328.72,13.15c-3.44,0-6.28.72-8.43,2.14-2.15,1.42-3.6,3.24-4.42,5.57-.87,2.45-1.31,5.97-1.31,10.44v12.88c0,4.13.24,7.24.72,9.25.46,1.91,1.22,3.55,2.27,4.87,1.01,1.27,2.47,2.24,4.34,2.89,1.99.69,4.48,1.04,7.41,1.04,2.58,0,4.87-.4,6.83-1.2,1.91-.77,3.42-1.94,4.63-3.56,1.23-1.64,2.04-3.42,2.41-5.3.4-2,.6-5.25.6-9.65v-12.31c0-3.41-.21-5.96-.63-7.58-.4-1.54-1.16-3.07-2.27-4.55-1.07-1.43-2.64-2.62-4.66-3.53-2.06-.93-4.58-1.4-7.51-1.4ZM329.17,56.32c-1.43,0-2.53-.74-3.03-2.04-.24-.62-.52-1.78-.52-5.18v-22.68c0-3.69.28-4.85.53-5.44.51-1.22,1.62-1.93,3.06-1.93s2.56.72,3.04,1.97c.22.58.48,1.73.48,5.4v23.18c0,3.14-.27,4.22-.51,4.8-.5,1.22-1.61,1.92-3.04,1.92ZM328.99,53.3s.07.01.18.01c.2,0,.27-.04.27-.04.06-.18.28-.94.28-3.69v-23.18c0-3.42-.24-4.21-.28-4.33.02,0-.05-.04-.23-.04-.17,0-.25.03-.27.04-.06.16-.32.94-.32,4.33v22.68c0,3.04.24,3.91.32,4.1.03.08.05.11.05.11,0,0,0,0,0,0Z"/>
    </g>
  </g>
</svg>